<?xml version="1.0" encoding="utf-8"?>
<!-- Generator: Adobe Illustrator 26.0.1, SVG Export Plug-In . SVG Version: 6.00 Build 0)  -->
<svg version="1.1" id="Layer_1" xmlns="http://www.w3.org/2000/svg" xmlns:xlink="http://www.w3.org/1999/xlink" x="0px" y="0px"
	 viewBox="0 0 268.5 307.6" style="enable-background:new 0 0 268.5 307.6;" xml:space="preserve">
<style type="text/css">
	.st0{fill:#F97316;}
</style>
<g id="Layer_2_00000026155860014353825930000015012032771034773393_">
	<g id="Layer_1-2">
		<path class="st0" d="M57.1,307.6c-4.5-4.4-9.1-8.7-13.6-13.1c-9.7-9.4-19.4-18.7-29-28.2c-9.8-9.6-14.4-21.6-14.4-35.1
			C0,175-0.1,118.8,0,62.7C0,27.1,27.2,0,62.8,0h201c1.5,0,2.9,0.1,4.8,0.2c-0.4,1.6-0.6,2.9-1,4.1c-4.5,13.6-8.9,27.2-13.6,40.8
			c-4.8,13.9-13.9,20.4-28.5,20.4c-47,0-94,0.1-141,0.1c-16.1,0-26.2,10-26.2,26.3c0,69.7,0,139.3,0,209v6.2L57.1,307.6z"/>
		<path class="st0" d="M230.3,114.4c-3.5,10.6-6.8,20.7-10.1,30.8c-1.5,4.6-3.1,9.2-4.5,13.8c-3.7,12.1-12.9,20.2-25.6,20.3
			c-33.2,0.4-66.3,0.1-99.5,0.1c-0.4-0.1-0.9-0.2-1.3-0.4c-0.2-1-0.3-2.1-0.4-3.1c0-14.5-0.2-29,0-43.5c0.1-11.2,7-18.2,18.1-18.2
			c40.2-0.1,80.3-0.1,120.5,0C228.2,114.2,228.8,114.3,230.3,114.4z"/>
		<path class="st0" d="M146.6,224.6c0,10.2,0.6,20.1-0.2,29.8c-0.8,9.3-6.3,16.8-14.4,21.1c-13.8,7.3-28.1,13.5-42.8,20.4v-71.2
			H146.6z"/>
	</g>
</g>
</svg>
